<svg width="113" height="140" viewBox="0 0 113 140" fill="none" xmlns="http://www.w3.org/2000/svg">
<path d="M91.0926 0.132182L89.3742 57.2356L90.8282 88.6954L75.2305 92L35.8397 28.2874V57.2356L37.6903 91.6034H21.1673L22.7535 59.4828L21.1673 0.793101L37.0293 0L76.288 64.6379L74.9661 2.11494L91.0926 0.132182Z" fill="#F83A43"/>
<path d="M18.1891 116.103L17.7421 130.957L18.1203 139.14L14.063 140L3.81662 123.427V130.957L4.29799 139.897H0L0.412608 131.542L0 116.275L4.12607 116.069L14.3381 132.883L13.9943 116.619L18.1891 116.103Z" fill="white"/>
<path d="M23.7061 139.897L24.1187 131.542L23.7061 116.172H36.6001L36.2219 119.851H28.4855L28.2792 125.937H35.156L34.7778 129.582H28.1417L28.1073 130.957L28.348 136.252H36.6689L36.2906 139.897H23.7061Z" fill="white"/>
<path d="M37.8788 120.126L38.257 116.172H54.5894L54.2111 120.126L48.2283 119.61L48.0908 130.957L48.5034 139.897H43.6896L44.1022 131.542L43.9647 119.645L37.8788 120.126Z" fill="white"/>
<path d="M69.4201 119.851H62.0963L61.89 126.178H68.4574L68.0791 129.822H61.7869L61.7525 130.957L62.1651 139.897H57.3514L57.764 131.542L57.3514 116.172H69.7983L69.4201 119.851Z" fill="white"/>
<path d="M72.5622 139.897L72.9748 131.542L72.5622 116.86L77.4447 116L76.9634 130.957L77.2041 136.527L84.2528 135.977L83.8745 139.897H72.5622Z" fill="white"/>
<path d="M92.0848 116L91.6034 130.957L92.016 139.897H87.2023L87.6149 131.542L87.2023 116.86L92.0848 116Z" fill="white"/>
<path d="M105.039 116.172C107.24 116.172 108.993 116.802 110.3 118.063C111.607 119.301 112.26 121.009 112.26 123.186C112.26 125.364 111.435 127.232 109.784 128.791C108.134 130.327 106.117 131.095 103.733 131.095H101.773L102.185 139.897H97.5779L97.9905 131.542L97.5779 116.172H105.039ZM103.801 119.645H102.117L101.876 127.759H104.214C105.36 127.759 106.243 127.381 106.862 126.625C107.503 125.868 107.824 124.791 107.824 123.393C107.824 120.894 106.483 119.645 103.801 119.645Z" fill="white"/>
</svg>
