<svg width="113" height="24" viewBox="0 0 113 24" fill="none" xmlns="http://www.w3.org/2000/svg">
<path d="M18.228 0.103153L17.7801 14.957L18.1591 23.1404L14.0931 24L3.82478 7.42693V14.957L4.30719 23.8968H0L0.41349 15.5415L0 0.275073L4.1349 0.0687693L14.3688 16.8825L14.0242 0.618912L18.228 0.103153Z" fill="#F83A43"/>
<path d="M23.7568 23.8968L24.1703 15.5415L23.7568 0.17192H36.6784L36.2994 3.851H28.5464L28.3397 9.93696H35.2312L34.8522 13.5817H28.2019L28.1674 14.957L28.4086 20.2521H36.7473L36.3683 23.8968H23.7568Z" fill="#F83A43"/>
<path d="M37.9598 4.12607L38.3388 0.17192H54.7061L54.3271 4.12607L48.3315 3.61032L48.1937 14.957L48.6072 23.8968H43.7831L44.1966 15.5415L44.0588 3.6447L37.9598 4.12607Z" fill="#F83A43"/>
<path d="M69.5686 3.851H62.2292L62.0224 10.1777H68.6038L68.2248 13.8223H61.9191L61.8846 14.957L62.2981 23.8968H57.474L57.8875 15.5415L57.474 0.17192H69.9477L69.5686 3.851Z" fill="#F83A43"/>
<path d="M72.7175 23.8968L73.1309 15.5415L72.7175 0.8596L77.6104 0L77.128 14.957L77.3692 20.5272L84.433 19.9771L84.054 23.8968H72.7175Z" fill="#F83A43"/>
<path d="M92.2818 0L91.7994 14.957L92.2129 23.8968H87.3888L87.8023 15.5415L87.3888 0.8596L92.2818 0Z" fill="#F83A43"/>
<path d="M105.264 0.17192C107.469 0.17192 109.227 0.802293 110.536 2.06304C111.845 3.30086 112.5 5.0086 112.5 7.18625C112.5 9.3639 111.673 11.2321 110.019 12.7908C108.365 14.3266 106.344 15.0946 103.955 15.0946H101.99L102.404 23.8968H97.7866L98.2001 15.5415L97.7866 0.17192H105.264ZM104.023 3.6447H102.335L102.094 11.7593H104.437C105.586 11.7593 106.47 11.3811 107.09 10.6246C107.733 9.86819 108.055 8.79083 108.055 7.39255C108.055 4.89398 106.711 3.6447 104.023 3.6447Z" fill="#F83A43"/>
</svg>
