<svg width="24" height="24" viewBox="0 0 24 24" fill="none" xmlns="http://www.w3.org/2000/svg">
<mask id="mask0_82_3304" style="mask-type:alpha" maskUnits="userSpaceOnUse" x="0" y="0" width="24" height="24">
<rect width="24" height="24" fill="#D9D9D9"/>
</mask>
<g mask="url(#mask0_82_3304)">
<path d="M8.30005 17.2999L3.70005 12.6999C3.60005 12.5999 3.52938 12.4916 3.48805 12.3749C3.44605 12.2582 3.42505 12.1332 3.42505 11.9999C3.42505 11.8666 3.44605 11.7416 3.48805 11.6249C3.52938 11.5082 3.60005 11.3999 3.70005 11.2999L8.32505 6.6749C8.50838 6.49157 8.73338 6.3999 9.00005 6.3999C9.26672 6.3999 9.50005 6.4999 9.70005 6.6999C9.88338 6.88324 9.97505 7.11657 9.97505 7.3999C9.97505 7.68324 9.88338 7.91657 9.70005 8.0999L6.80005 10.9999H20C20.2834 10.9999 20.5207 11.0956 20.712 11.2869C20.904 11.4789 21 11.7166 21 11.9999C21 12.2832 20.904 12.5206 20.712 12.7119C20.5207 12.9039 20.2834 12.9999 20 12.9999H6.80005L9.72505 15.9249C9.90838 16.1082 10 16.3332 10 16.5999C10 16.8666 9.90005 17.0999 9.70005 17.2999C9.51672 17.4832 9.28338 17.5749 9.00005 17.5749C8.71672 17.5749 8.48338 17.4832 8.30005 17.2999Z" fill="white"/>
</g>
</svg>
