<svg width="24" height="24" viewBox="0 0 24 24" fill="none" xmlns="http://www.w3.org/2000/svg">
<mask id="mask0_82_3305" style="mask-type:alpha" maskUnits="userSpaceOnUse" x="0" y="0" width="24" height="24">
<rect width="24" height="24" transform="matrix(-1 0 0 1 24 0)" fill="#D9D9D9"/>
</mask>
<g mask="url(#mask0_82_3305)">
<path d="M15.7 17.2999L20.3 12.6999C20.4 12.5999 20.4706 12.4916 20.512 12.3749C20.554 12.2582 20.575 12.1332 20.575 11.9999C20.575 11.8666 20.554 11.7416 20.512 11.6249C20.4706 11.5082 20.4 11.3999 20.3 11.2999L15.675 6.6749C15.4916 6.49157 15.2666 6.3999 15 6.3999C14.7333 6.3999 14.5 6.4999 14.3 6.6999C14.1166 6.88324 14.025 7.11657 14.025 7.3999C14.025 7.68324 14.1166 7.91657 14.3 8.0999L17.2 10.9999H3.99995C3.71662 10.9999 3.47928 11.0956 3.28795 11.2869C3.09595 11.4789 2.99995 11.7166 2.99995 11.9999C2.99995 12.2832 3.09595 12.5206 3.28795 12.7119C3.47928 12.9039 3.71662 12.9999 3.99995 12.9999H17.2L14.275 15.9249C14.0916 16.1082 14 16.3332 14 16.5999C14 16.8666 14.1 17.0999 14.3 17.2999C14.4833 17.4832 14.7166 17.5749 15 17.5749C15.2833 17.5749 15.5166 17.4832 15.7 17.2999Z" fill="white"/>
</g>
</svg>
