<svg width="32" height="32" viewBox="0 0 32 32" fill="none" xmlns="http://www.w3.org/2000/svg">
<mask id="mask0_82_3060" style="mask-type:alpha" maskUnits="userSpaceOnUse" x="0" y="0" width="32" height="32">
<rect width="32" height="32" fill="#D9D9D9"/>
</mask>
<g mask="url(#mask0_82_3060)">
<path d="M15.9999 17.8667L9.46661 24.4001C9.22216 24.6445 8.91105 24.7667 8.53328 24.7667C8.1555 24.7667 7.84439 24.6445 7.59994 24.4001C7.3555 24.1556 7.23328 23.8445 7.23328 23.4667C7.23328 23.089 7.3555 22.7778 7.59994 22.5334L14.1333 16.0001L7.59994 9.46673C7.3555 9.22229 7.23328 8.91118 7.23328 8.5334C7.23328 8.15562 7.3555 7.84451 7.59994 7.60006C7.84439 7.35562 8.1555 7.2334 8.53328 7.2334C8.91105 7.2334 9.22216 7.35562 9.46661 7.60006L15.9999 14.1334L22.5333 7.60006C22.7777 7.35562 23.0888 7.2334 23.4666 7.2334C23.8444 7.2334 24.1555 7.35562 24.3999 7.60006C24.6444 7.84451 24.7666 8.15562 24.7666 8.5334C24.7666 8.91118 24.6444 9.22229 24.3999 9.46673L17.8666 16.0001L24.3999 22.5334C24.6444 22.7778 24.7666 23.089 24.7666 23.4667C24.7666 23.8445 24.6444 24.1556 24.3999 24.4001C24.1555 24.6445 23.8444 24.7667 23.4666 24.7667C23.0888 24.7667 22.7777 24.6445 22.5333 24.4001L15.9999 17.8667Z" fill="white"/>
</g>
</svg>
