<svg width="33" height="33" viewBox="0 0 33 33" fill="none" xmlns="http://www.w3.org/2000/svg">
<mask id="mask0_169_143" style="mask-type:alpha" maskUnits="userSpaceOnUse" x="0" y="0" width="33" height="33">
<rect x="0.23999" y="0.77301" width="32" height="32" fill="#D9D9D9"/>
</mask>
<g mask="url(#mask0_169_143)">
<path d="M10.9067 6.10636C10.529 6.10636 10.2121 5.97836 9.95607 5.72236C9.70096 5.46725 9.5734 5.15081 9.5734 4.77303C9.5734 4.39525 9.70096 4.07836 9.95607 3.82236C10.2121 3.56725 10.529 3.4397 10.9067 3.4397H21.5734C21.9512 3.4397 22.2676 3.56725 22.5227 3.82236C22.7787 4.07836 22.9067 4.39525 22.9067 4.77303C22.9067 5.15081 22.7787 5.46725 22.5227 5.72236C22.2676 5.97836 21.9512 6.10636 21.5734 6.10636H10.9067ZM6.90674 10.1064C6.52896 10.1064 6.21207 9.97881 5.95607 9.7237C5.70096 9.4677 5.5734 9.15081 5.5734 8.77303C5.5734 8.39525 5.70096 8.07836 5.95607 7.82236C6.21207 7.56725 6.52896 7.4397 6.90674 7.4397H25.5734C25.9512 7.4397 26.2676 7.56725 26.5227 7.82236C26.7787 8.07836 26.9067 8.39525 26.9067 8.77303C26.9067 9.15081 26.7787 9.4677 26.5227 9.7237C26.2676 9.97881 25.9512 10.1064 25.5734 10.1064H6.90674ZM5.5734 30.1064C4.84007 30.1064 4.21252 29.8455 3.69074 29.3237C3.16807 28.801 2.90674 28.173 2.90674 27.4397V14.1064C2.90674 13.373 3.16807 12.745 3.69074 12.2224C4.21252 11.7006 4.84007 11.4397 5.5734 11.4397H26.9067C27.6401 11.4397 28.2681 11.7006 28.7907 12.2224C29.3125 12.745 29.5734 13.373 29.5734 14.1064V27.4397C29.5734 28.173 29.3125 28.801 28.7907 29.3237C28.2681 29.8455 27.6401 30.1064 26.9067 30.1064H5.5734ZM15.6401 24.7397L19.9067 21.873C20.3067 21.6064 20.5067 21.2397 20.5067 20.773C20.5067 20.3064 20.3067 19.9397 19.9067 19.673L15.6401 16.8064C15.1956 16.4953 14.7401 16.473 14.2734 16.7397C13.8067 17.0064 13.5734 17.4064 13.5734 17.9397V23.6064C13.5734 24.1397 13.8067 24.5397 14.2734 24.8064C14.7401 25.073 15.1956 25.0508 15.6401 24.7397Z" fill="white"/>
</g>
</svg>
