<svg width="32" height="32" viewBox="0 0 32 32" fill="none" xmlns="http://www.w3.org/2000/svg">
<mask id="mask0_82_3255" style="mask-type:alpha" maskUnits="userSpaceOnUse" x="0" y="0" width="32" height="32">
<rect width="32" height="32" fill="#788189"/>
</mask>
<g mask="url(#mask0_82_3255)">
<path d="M10.6666 5.33341C10.2888 5.33341 9.97196 5.20541 9.71596 4.94941C9.46085 4.6943 9.33329 4.37786 9.33329 4.00008C9.33329 3.6223 9.46085 3.30541 9.71596 3.04941C9.97196 2.7943 10.2888 2.66675 10.6666 2.66675H21.3333C21.7111 2.66675 22.0275 2.7943 22.2826 3.04941C22.5386 3.30541 22.6666 3.6223 22.6666 4.00008C22.6666 4.37786 22.5386 4.6943 22.2826 4.94941C22.0275 5.20541 21.7111 5.33341 21.3333 5.33341H10.6666ZM6.66663 9.33341C6.28885 9.33341 5.97196 9.20586 5.71596 8.95075C5.46085 8.69475 5.33329 8.37786 5.33329 8.00008C5.33329 7.6223 5.46085 7.30541 5.71596 7.04941C5.97196 6.7943 6.28885 6.66675 6.66663 6.66675H25.3333C25.7111 6.66675 26.0275 6.7943 26.2826 7.04941C26.5386 7.30541 26.6666 7.6223 26.6666 8.00008C26.6666 8.37786 26.5386 8.69475 26.2826 8.95075C26.0275 9.20586 25.7111 9.33341 25.3333 9.33341H6.66663ZM5.33329 29.3334C4.59996 29.3334 3.9724 29.0725 3.45063 28.5507C2.92796 28.0281 2.66663 27.4001 2.66663 26.6667V13.3334C2.66663 12.6001 2.92796 11.9721 3.45063 11.4494C3.9724 10.9276 4.59996 10.6667 5.33329 10.6667H26.6666C27.4 10.6667 28.028 10.9276 28.5506 11.4494C29.0724 11.9721 29.3333 12.6001 29.3333 13.3334V26.6667C29.3333 27.4001 29.0724 28.0281 28.5506 28.5507C28.028 29.0725 27.4 29.3334 26.6666 29.3334H5.33329ZM15.4 23.9667L19.6666 21.1001C20.0666 20.8334 20.2666 20.4667 20.2666 20.0001C20.2666 19.5334 20.0666 19.1667 19.6666 18.9001L15.4 16.0334C14.9555 15.7223 14.5 15.7001 14.0333 15.9667C13.5666 16.2334 13.3333 16.6334 13.3333 17.1667V22.8334C13.3333 23.3667 13.5666 23.7667 14.0333 24.0334C14.5 24.3001 14.9555 24.2779 15.4 23.9667Z" fill="white"/>
</g>
</svg>
