<svg width="24" height="24" viewBox="0 0 24 24" fill="none" xmlns="http://www.w3.org/2000/svg">
<mask id="mask0_82_2650" style="mask-type:alpha" maskUnits="userSpaceOnUse" x="0" y="0" width="24" height="24">
<rect width="24" height="24" fill="#D9D9D9"/>
</mask>
<g mask="url(#mask0_82_2650)">
<path d="M19.4256 9.0503L14.9496 4.5743L16.1748 3.3503C16.5916 2.9335 17.0876 2.7251 17.6628 2.7251C18.238 2.7251 18.7336 2.9335 19.1496 3.3503L20.6496 4.8503C21.0496 5.2503 21.2496 5.7459 21.2496 6.3371C21.2496 6.9291 21.0496 7.4251 20.6496 7.8251L19.4256 9.0503ZM4.05 20.9999C3.7668 20.9999 3.5208 20.8959 3.312 20.6879C3.104 20.4791 3 20.2331 3 19.9499V16.9499C3 16.8163 3.0248 16.6871 3.0744 16.5623C3.1248 16.4375 3.2 16.3251 3.3 16.2251L13.4748 6.0503L17.9496 10.5251L7.7748 20.6999C7.6748 20.7999 7.5624 20.8751 7.4376 20.9255C7.3128 20.9751 7.1836 20.9999 7.05 20.9999H4.05Z" fill="white"/>
</g>
</svg>
