<svg width="24" height="24" viewBox="0 0 24 24" fill="none" xmlns="http://www.w3.org/2000/svg">
<mask id="mask0_82_2387" style="mask-type:alpha" maskUnits="userSpaceOnUse" x="0" y="0" width="24" height="24">
<rect width="24" height="24" fill="#D9D9D9"/>
</mask>
<g mask="url(#mask0_82_2387)">
<path d="M6.5998 18.5996V19.4996C6.5998 19.7492 6.5122 19.9616 6.337 20.1368C6.1618 20.312 5.9494 20.3996 5.6998 20.3996C5.4502 20.3996 5.2378 20.312 5.0626 20.1368C4.8874 19.9616 4.7998 19.7492 4.7998 19.4996V4.49961C4.7998 4.25001 4.8874 4.03761 5.0626 3.86241C5.2378 3.68721 5.4502 3.59961 5.6998 3.59961C5.9494 3.59961 6.1618 3.68721 6.337 3.86241C6.5122 4.03761 6.5998 4.25001 6.5998 4.49961V5.39961H8.3998V4.49961C8.3998 4.25001 8.4874 4.03761 8.6626 3.86241C8.8378 3.68721 9.0502 3.59961 9.2998 3.59961H14.6998C14.9494 3.59961 15.1618 3.68721 15.337 3.86241C15.5122 4.03761 15.5998 4.25001 15.5998 4.49961V5.39961H17.3998V4.49961C17.3998 4.25001 17.4874 4.03761 17.6626 3.86241C17.8378 3.68721 18.0502 3.59961 18.2998 3.59961C18.5494 3.59961 18.7618 3.68721 18.937 3.86241C19.1122 4.03761 19.1998 4.25001 19.1998 4.49961V19.4996C19.1998 19.7492 19.1122 19.9616 18.937 20.1368C18.7618 20.312 18.5494 20.3996 18.2998 20.3996C18.0502 20.3996 17.8378 20.312 17.6626 20.1368C17.4874 19.9616 17.3998 19.7492 17.3998 19.4996V18.5996H15.5998V19.4996C15.5998 19.7492 15.5122 19.9616 15.337 20.1368C15.1618 20.312 14.9494 20.3996 14.6998 20.3996H9.2998C9.0502 20.3996 8.8378 20.312 8.6626 20.1368C8.4874 19.9616 8.3998 19.7492 8.3998 19.4996V18.5996H6.5998ZM6.5998 16.7996H8.3998V14.7992H6.5998V16.7996ZM6.5998 12.9992H8.3998V11H6.5998V12.9992ZM6.5998 9.20001H8.3998V7.19961H6.5998V9.20001ZM15.5998 16.7996H17.3998V14.7992H15.5998V16.7996ZM15.5998 12.9992H17.3998V11H15.5998V12.9992ZM15.5998 9.20001H17.3998V7.19961H15.5998V9.20001Z" fill="white"/>
</g>
</svg>
