<svg width="32" height="32" viewBox="0 0 32 32" fill="none" xmlns="http://www.w3.org/2000/svg">
<mask id="mask0_82_3258" style="mask-type:alpha" maskUnits="userSpaceOnUse" x="0" y="0" width="32" height="32">
<rect width="32" height="32" fill="#D9D9D9"/>
</mask>
<g mask="url(#mask0_82_3258)">
<path d="M14.2 26.4001L11.9 24.3001C9.5444 22.1446 7.41685 20.0054 5.51729 17.8828C3.61685 15.761 2.66663 13.4223 2.66663 10.8668C2.66663 8.77789 3.36663 7.03345 4.76663 5.63345C6.16663 4.23345 7.91107 3.53345 9.99996 3.53345C11.1777 3.53345 12.2888 3.78322 13.3333 4.28278C14.3777 4.78322 15.2666 5.46678 16 6.33345C16.7333 5.46678 17.6222 4.78322 18.6666 4.28278C19.7111 3.78322 20.8222 3.53345 22 3.53345C24.0888 3.53345 25.8333 4.23345 27.2333 5.63345C28.6333 7.03345 29.3333 8.77789 29.3333 10.8668C29.3333 13.4223 28.3888 15.7668 26.5 17.9001C24.6111 20.0334 22.4666 22.1779 20.0666 24.3334L17.8 26.4001C17.2888 26.8668 16.6888 27.1001 16 27.1001C15.3111 27.1001 14.7111 26.8668 14.2 26.4001Z" fill="white"/>
</g>
</svg>
