<svg width="24" height="24" viewBox="0 0 24 24" fill="none" xmlns="http://www.w3.org/2000/svg">
<mask id="mask0_82_1742" style="mask-type:alpha" maskUnits="userSpaceOnUse" x="0" y="0" width="24" height="24">
<rect width="24" height="24" fill="#D9D9D9"/>
</mask>
<g mask="url(#mask0_82_1742)">
<path d="M10.65 19.8004L8.925 18.2254C7.15833 16.6087 5.56267 15.0044 4.138 13.4124C2.71267 11.8211 2 10.0671 2 8.15039C2 6.58372 2.525 5.27539 3.575 4.22539C4.625 3.17539 5.93333 2.65039 7.5 2.65039C8.38333 2.65039 9.21667 2.83772 10 3.21239C10.7833 3.58772 11.45 4.10039 12 4.75039C12.55 4.10039 13.2167 3.58772 14 3.21239C14.7833 2.83772 15.6167 2.65039 16.5 2.65039C18.0667 2.65039 19.375 3.17539 20.425 4.22539C21.475 5.27539 22 6.58372 22 8.15039C22 10.0671 21.2917 11.8254 19.875 13.4254C18.4583 15.0254 16.85 16.6337 15.05 18.2504L13.35 19.8004C12.9667 20.1671 12.5167 20.3504 12 20.3504C11.4833 20.3504 11.0333 20.1671 10.65 19.8004ZM11.05 6.75039C10.5667 6.06706 10.05 5.54606 9.5 5.18739C8.95 4.82939 8.28333 4.65039 7.5 4.65039C6.5 4.65039 5.66667 4.98372 5 5.65039C4.33333 6.31706 4 7.15039 4 8.15039C4 9.01706 4.30833 9.93772 4.925 10.9124C5.54167 11.8877 6.27933 12.8337 7.138 13.7504C7.996 14.6671 8.87933 15.5254 9.788 16.3254C10.696 17.1254 11.4333 17.7837 12 18.3004C12.5667 17.7837 13.3043 17.1254 14.213 16.3254C15.121 15.5254 16.0043 14.6671 16.863 13.7504C17.721 12.8337 18.4583 11.8877 19.075 10.9124C19.6917 9.93772 20 9.01706 20 8.15039C20 7.15039 19.6667 6.31706 19 5.65039C18.3333 4.98372 17.5 4.65039 16.5 4.65039C15.7167 4.65039 15.05 4.82939 14.5 5.18739C13.95 5.54606 13.4333 6.06706 12.95 6.75039C12.8333 6.91706 12.6917 7.04206 12.525 7.12539C12.3583 7.20872 12.1833 7.25039 12 7.25039C11.8167 7.25039 11.6417 7.20872 11.475 7.12539C11.3083 7.04206 11.1667 6.91706 11.05 6.75039Z" fill="white"/>
</g>
</svg>
