<svg width="24" height="24" viewBox="0 0 24 24" fill="none" xmlns="http://www.w3.org/2000/svg">
<mask id="mask0_82_2698" style="mask-type:alpha" maskUnits="userSpaceOnUse" x="0" y="0" width="24" height="24">
<rect width="24" height="24" fill="#D9D9D9"/>
</mask>
<g mask="url(#mask0_82_2698)">
<path d="M11.9748 21.9997L11.7252 18.9997H11.4504C9.1168 18.9997 7.1248 18.1749 5.4744 16.5253C3.8248 14.8749 3 12.8665 3 10.5001C3 8.13369 3.8248 6.12529 5.4744 4.47489C7.1248 2.82529 9.1332 2.00049 11.4996 2.00049C12.6828 2.00049 13.7872 2.22129 14.8128 2.66289C15.8376 3.10449 16.7332 3.71289 17.4996 4.48809C18.2668 5.26249 18.8712 6.16249 19.3128 7.18809C19.7544 8.21289 19.9752 9.31689 19.9752 10.5001C19.9752 12.9001 19.2628 15.1209 17.838 17.1625C16.4124 19.2041 14.458 20.8165 11.9748 21.9997ZM11.4996 15.9001C11.7836 15.9001 12.0296 15.7961 12.2376 15.5881C12.4456 15.3793 12.5496 15.1333 12.5496 14.8501C12.5496 14.5669 12.4456 14.3209 12.2376 14.1121C12.0296 13.9041 11.7836 13.8001 11.4996 13.8001C11.2164 13.8001 10.9708 13.9041 10.7628 14.1121C10.554 14.3209 10.4496 14.5669 10.4496 14.8501C10.4496 15.1333 10.554 15.3793 10.7628 15.5881C10.9708 15.7961 11.2164 15.9001 11.4996 15.9001ZM11.4744 12.7753C11.6584 12.7753 11.8296 12.7085 11.988 12.5749C12.1464 12.4413 12.2588 12.2581 12.3252 12.0253C12.3916 11.8085 12.5 11.6001 12.6504 11.4001C12.8 11.2001 13.0248 10.9501 13.3248 10.6501C13.708 10.2669 13.9832 9.91289 14.1504 9.58809C14.3168 9.26249 14.4 8.91649 14.4 8.55009C14.4 7.76689 14.1416 7.14609 13.6248 6.68769C13.108 6.22929 12.4248 6.00009 11.5752 6.00009C11.0416 6.00009 10.5456 6.12089 10.0872 6.36249C9.6288 6.60409 9.258 6.93329 8.9748 7.35009C8.8412 7.53329 8.8204 7.73729 8.9124 7.96209C9.0044 8.18769 9.1668 8.35049 9.3996 8.45049C9.5668 8.51689 9.742 8.51689 9.9252 8.45049C10.1084 8.38329 10.2752 8.26649 10.4256 8.10009C10.5752 7.91689 10.746 7.77929 10.938 7.68729C11.1292 7.59609 11.3416 7.55049 11.5752 7.55049C11.9584 7.55049 12.2624 7.63769 12.4872 7.81209C12.7128 7.98729 12.8256 8.23329 12.8256 8.55009C12.8256 8.78369 12.7544 9.01689 12.612 9.24969C12.4704 9.48329 12.2496 9.73329 11.9496 9.99969C11.5496 10.3501 11.2624 10.6669 11.088 10.9501C10.9128 11.2333 10.8 11.5917 10.7496 12.0253C10.7168 12.2253 10.7752 12.4001 10.9248 12.5497C11.0752 12.7001 11.2584 12.7753 11.4744 12.7753Z" fill="white"/>
</g>
</svg>
