<svg width="32" height="32" viewBox="0 0 32 32" fill="none" xmlns="http://www.w3.org/2000/svg">
<mask id="mask0_82_3252" style="mask-type:alpha" maskUnits="userSpaceOnUse" x="0" y="0" width="32" height="32">
<rect width="32" height="32" fill="#D9D9D9"/>
</mask>
<g mask="url(#mask0_82_3252)">
<path d="M7.99992 28.0001C7.26659 28.0001 6.63903 27.7392 6.11725 27.2174C5.59459 26.6947 5.33325 26.0667 5.33325 25.3334V13.3334C5.33325 12.9112 5.42792 12.5112 5.61725 12.1334C5.8057 11.7556 6.06659 11.4445 6.39992 11.2001L14.3999 5.20008C14.6444 5.0223 14.8999 4.88897 15.1666 4.80008C15.4333 4.71119 15.711 4.66675 15.9999 4.66675C16.2888 4.66675 16.5666 4.71119 16.8333 4.80008C17.0999 4.88897 17.3555 5.0223 17.5999 5.20008L25.5999 11.2001C25.9333 11.4445 26.1946 11.7556 26.3839 12.1334C26.5724 12.5112 26.6666 12.9112 26.6666 13.3334V25.3334C26.6666 26.0667 26.4057 26.6947 25.8839 27.2174C25.3613 27.7392 24.7333 28.0001 23.9999 28.0001H18.6666V18.6667H13.3333V28.0001H7.99992Z" fill="white"/>
</g>
</svg>
