<svg width="24" height="24" viewBox="0 0 24 24" fill="none" xmlns="http://www.w3.org/2000/svg">
<mask id="mask0_82_2704" style="mask-type:alpha" maskUnits="userSpaceOnUse" x="0" y="0" width="24" height="24">
<rect width="24" height="24" fill="#D9D9D9"/>
</mask>
<g mask="url(#mask0_82_2704)">
<path d="M15.15 16.4004C14.95 16.2004 14.85 15.9544 14.85 15.6624C14.85 15.3712 14.95 15.1256 15.15 14.9256L17.0256 13.05H10.0752C9.792 13.05 9.546 12.946 9.3372 12.738C9.1292 12.5292 9.0252 12.2832 9.0252 12C9.0252 11.7168 9.1292 11.4708 9.3372 11.262C9.546 11.054 9.792 10.95 10.0752 10.95H16.95L15.1248 9.0996C14.9416 8.8996 14.85 8.658 14.85 8.3748C14.85 8.0916 14.95 7.85 15.15 7.65C15.35 7.45 15.596 7.35 15.888 7.35C16.1792 7.35 16.4248 7.45 16.6248 7.65L20.25 11.2752C20.3668 11.392 20.45 11.5128 20.4996 11.6376C20.55 11.7624 20.5752 11.8916 20.5752 12.0252C20.5752 12.1588 20.55 12.288 20.4996 12.4128C20.45 12.5376 20.3668 12.6584 20.25 12.7752L16.5996 16.4256C16.3996 16.6256 16.1624 16.7256 15.888 16.7256C15.6128 16.7256 15.3668 16.6172 15.15 16.4004ZM5.1 21C4.5168 21 4.0208 20.796 3.612 20.388C3.204 19.9792 3 19.4832 3 18.9V5.1C3 4.5168 3.204 4.0208 3.612 3.612C4.0208 3.204 4.5168 3 5.1 3H10.9248C11.208 3 11.454 3.104 11.6628 3.312C11.8708 3.5208 11.9748 3.7668 11.9748 4.05C11.9748 4.3332 11.8708 4.5792 11.6628 4.788C11.454 4.996 11.208 5.1 10.9248 5.1H5.1V18.9H10.9248C11.208 18.9 11.454 19.004 11.6628 19.212C11.8708 19.4208 11.9748 19.6668 11.9748 19.95C11.9748 20.2332 11.8708 20.4792 11.6628 20.688C11.454 20.896 11.208 21 10.9248 21H5.1Z" fill="white"/>
</g>
</svg>
