<svg width="24" height="24" viewBox="0 0 24 24" fill="none" xmlns="http://www.w3.org/2000/svg">
<mask id="mask0_82_2692" style="mask-type:alpha" maskUnits="userSpaceOnUse" x="0" y="0" width="24" height="24">
<rect width="24" height="24" fill="#D9D9D9"/>
</mask>
<g mask="url(#mask0_82_2692)">
<path d="M10.0753 11.975C8.94169 11.975 7.99169 11.5918 7.22529 10.8254C6.45809 10.0582 6.07449 9.10821 6.07449 7.97541C6.07449 6.84181 6.45809 5.89181 7.22529 5.12541C7.99169 4.35821 8.94169 3.97461 10.0753 3.97461C11.2081 3.97461 12.1581 4.35821 12.9253 5.12541C13.6917 5.89181 14.0749 6.84181 14.0749 7.97541C14.0749 9.10821 13.6917 10.0582 12.9253 10.8254C12.1581 11.5918 11.2081 11.975 10.0753 11.975ZM3.05049 20.0006C2.76729 20.0006 2.52129 19.8962 2.31249 19.6874C2.10449 19.4794 2.00049 19.2338 2.00049 18.9506V17.1254C2.00049 16.5422 2.14209 16.0214 2.42529 15.563C2.70849 15.1046 3.10849 14.7502 3.62529 14.4998C4.57489 14.0334 5.59569 13.667 6.68769 13.4006C7.77969 13.1334 8.90889 12.9998 10.0753 12.9998H10.4257C10.5417 12.9998 10.6417 13.0082 10.7257 13.025C10.5921 13.3418 10.4753 13.671 10.3753 14.0126C10.2753 14.3542 10.1921 14.7166 10.1257 15.0998C10.0585 15.683 10.0417 16.1622 10.0753 16.5374C10.1089 16.9126 10.1921 17.367 10.3249 17.9006C10.4417 18.2838 10.5877 18.6462 10.7629 18.9878C10.9381 19.3294 11.1337 19.667 11.3497 20.0006H3.05049ZM16.9753 18.0254C17.5249 18.0254 17.9957 17.8294 18.3877 17.4374C18.7789 17.0462 18.9745 16.5754 18.9745 16.025C18.9745 15.4754 18.7789 15.0046 18.3877 14.6126C17.9957 14.2214 17.5249 14.0258 16.9753 14.0258C16.4249 14.0258 15.9541 14.2214 15.5629 14.6126C15.1709 15.0046 14.9749 15.4754 14.9749 16.025C14.9749 16.5754 15.1709 17.0462 15.5629 17.4374C15.9541 17.8294 16.4249 18.0254 16.9753 18.0254ZM15.6253 19.5254C15.4421 19.475 15.2669 19.4082 15.0997 19.325C14.9333 19.2418 14.7669 19.1334 14.6005 18.9998L13.5505 19.3502C13.4169 19.3838 13.2917 19.3798 13.1749 19.3382C13.0581 19.2958 12.9665 19.2166 12.9001 19.1006L12.3001 18.0746C12.2169 17.9586 12.1877 17.8338 12.2125 17.7002C12.2373 17.5666 12.2997 17.4582 12.3997 17.375L13.2001 16.6754C13.1833 16.4922 13.1749 16.2754 13.1749 16.025C13.1749 15.7754 13.1833 15.5586 13.2001 15.3746L12.3997 14.675C12.2997 14.5918 12.2373 14.4834 12.2125 14.3498C12.1877 14.217 12.2169 14.0922 12.3001 13.9754L12.9001 12.9506C12.9665 12.8338 13.0581 12.7546 13.1749 12.713C13.2917 12.6714 13.4169 12.667 13.5505 12.6998L14.6005 13.0502C14.7669 12.9166 14.9333 12.8082 15.0997 12.725C15.2669 12.6418 15.4421 12.5754 15.6253 12.5258L15.8257 11.4998C15.8585 11.367 15.9249 11.2586 16.0249 11.1746C16.1249 11.0914 16.2417 11.0498 16.3753 11.0498H17.5753C17.7081 11.0498 17.8249 11.0914 17.9257 11.1746C18.0249 11.2586 18.0913 11.367 18.1249 11.4998L18.3253 12.5258C18.5085 12.5754 18.6833 12.6418 18.8497 12.725C19.0169 12.8082 19.1837 12.9166 19.3501 13.0502L20.4001 12.6998C20.5337 12.667 20.6585 12.6714 20.7745 12.713C20.8913 12.7546 20.9833 12.8338 21.0505 12.9506L21.6505 13.9754C21.7337 14.0922 21.7629 14.217 21.7381 14.3498C21.7125 14.4834 21.6497 14.5918 21.5497 14.675L20.7505 15.3746C20.7665 15.525 20.7745 15.7418 20.7745 16.025C20.7745 16.3082 20.7665 16.525 20.7505 16.6754L21.5497 17.375C21.6497 17.4582 21.7125 17.5666 21.7381 17.7002C21.7629 17.8338 21.7337 17.9586 21.6505 18.0746L21.0505 19.1006C20.9833 19.2166 20.8913 19.2958 20.7745 19.3382C20.6585 19.3798 20.5337 19.3838 20.4001 19.3502L19.3501 18.9998C19.1837 19.1334 19.0169 19.2418 18.8497 19.325C18.6833 19.4082 18.5085 19.475 18.3253 19.5254L18.1249 20.5502C18.0913 20.6838 18.0249 20.7922 17.9257 20.8754C17.8249 20.9586 17.7081 21.0002 17.5753 21.0002H16.3753C16.2417 21.0002 16.1249 20.9586 16.0249 20.8754C15.9249 20.7922 15.8585 20.6838 15.8257 20.5502L15.6253 19.5254Z" fill="white"/>
</g>
</svg>
