<svg width="24" height="24" viewBox="0 0 24 24" fill="none" xmlns="http://www.w3.org/2000/svg">
<mask id="mask0_82_2769" style="mask-type:alpha" maskUnits="userSpaceOnUse" x="0" y="0" width="24" height="24">
<rect width="24" height="24" fill="#D9D9D9"/>
</mask>
<g mask="url(#mask0_82_2769)">
<path d="M7 15C7.83333 15 8.54167 14.7083 9.125 14.125C9.70833 13.5417 10 12.8333 10 12C10 11.1667 9.70833 10.4583 9.125 9.875C8.54167 9.29167 7.83333 9 7 9C6.16667 9 5.45833 9.29167 4.875 9.875C4.29167 10.4583 4 11.1667 4 12C4 12.8333 4.29167 13.5417 4.875 14.125C5.45833 14.7083 6.16667 15 7 15ZM7 18C5.33333 18 3.91667 17.4167 2.75 16.25C1.58333 15.0833 1 13.6667 1 12C1 10.3333 1.58333 8.91667 2.75 7.75C3.91667 6.58333 5.33333 6 7 6C8.35 6 9.52933 6.38333 10.538 7.15C11.546 7.91667 12.25 8.86667 12.65 10H20.6C20.7333 10 20.8627 10.025 20.988 10.075C21.1127 10.125 21.2167 10.1917 21.3 10.275L22.275 11.25C22.375 11.35 22.45 11.4623 22.5 11.587C22.55 11.7123 22.575 11.8417 22.575 11.975C22.575 12.1083 22.5543 12.2333 22.513 12.35C22.471 12.4667 22.4 12.575 22.3 12.675L19.7 15.275C19.6 15.375 19.4917 15.45 19.375 15.5C19.2583 15.55 19.1333 15.575 19 15.575C18.8667 15.575 18.7417 15.554 18.625 15.512C18.5083 15.4707 18.4 15.4 18.3 15.3L17 14L15.7 15.3C15.6 15.4 15.4917 15.4707 15.375 15.512C15.2583 15.554 15.1333 15.575 15 15.575C14.8667 15.575 14.7417 15.554 14.625 15.512C14.5083 15.4707 14.4 15.4 14.3 15.3L13 14H12.65C12.2333 15.2 11.5083 16.1667 10.475 16.9C9.44167 17.6333 8.28333 18 7 18Z" fill="white"/>
</g>
</svg>
