<svg width="64" height="64" viewBox="0 0 64 64" fill="none" xmlns="http://www.w3.org/2000/svg">
<mask id="mask0_418_140" style="mask-type:alpha" maskUnits="userSpaceOnUse" x="0" y="0" width="64" height="64">
<rect width="64" height="64" fill="#D9D9D9"/>
</mask>
<g mask="url(#mask0_418_140)">
<path d="M31.9998 32.0001C29.0665 32.0001 26.5554 30.9556 24.4665 28.8667C22.3776 26.7779 21.3332 24.2667 21.3332 21.3334C21.3332 18.4001 22.3776 15.889 24.4665 13.8001C26.5554 11.7112 29.0665 10.6667 31.9998 10.6667C34.9332 10.6667 37.4443 11.7112 39.5332 13.8001C41.6221 15.889 42.6665 18.4001 42.6665 21.3334C42.6665 24.2667 41.6221 26.7779 39.5332 28.8667C37.4443 30.9556 34.9332 32.0001 31.9998 32.0001ZM17.6314 56.0244C13.4341 54.4027 10.6665 50.3664 10.6665 45.8668V45.8668C10.6665 44.3556 11.0558 42.9663 11.8345 41.6987C12.6114 40.433 13.6443 39.4667 14.9332 38.8001C17.6887 37.4223 20.4887 36.3885 23.3332 35.6987C26.1776 35.0107 29.0665 34.6667 31.9998 34.6667C34.9332 34.6667 37.8221 35.0107 40.6665 35.6987C43.5109 36.3885 46.3109 37.4223 49.0665 38.8001C50.3554 39.4667 51.3883 40.433 52.1652 41.6987C52.9438 42.9663 53.3332 44.3556 53.3332 45.8668V45.8668C53.3332 50.3664 50.5656 54.4027 46.3683 56.0244L45.5301 56.3482C36.8235 59.7121 27.1761 59.7121 18.4696 56.3483L17.6314 56.0244Z" fill="white"/>
</g>
</svg>
