<svg width="32" height="32" viewBox="0 0 32 32" fill="none" xmlns="http://www.w3.org/2000/svg">
<path d="M28 28L22.2133 22.2133M25.3333 14.6667C25.3333 16.7763 24.7077 18.8386 23.5357 20.5927C22.3636 22.3469 20.6977 23.714 18.7486 24.5214C16.7995 25.3287 14.6548 25.54 12.5857 25.1284C10.5166 24.7168 8.61596 23.7009 7.1242 22.2091C5.63244 20.7174 4.61654 18.8168 4.20496 16.7476C3.79339 14.6785 4.00462 12.5338 4.81196 10.5847C5.61929 8.63563 6.98646 6.96973 8.74059 5.79766C10.4947 4.62559 12.557 4 14.6667 4C17.4956 4 20.2088 5.12381 22.2091 7.12419C24.2095 9.12458 25.3333 11.8377 25.3333 14.6667Z" stroke="white" stroke-width="2" stroke-linecap="round" stroke-linejoin="round"/>
</svg>
