<svg width="24" height="24" viewBox="0 0 24 24" fill="none" xmlns="http://www.w3.org/2000/svg">
<mask id="mask0_82_2382" style="mask-type:alpha" maskUnits="userSpaceOnUse" x="0" y="0" width="24" height="24">
<rect width="24" height="24" fill="#D9D9D9"/>
</mask>
<g mask="url(#mask0_82_2382)">
<path d="M14.4742 15.974C14.6742 16.174 14.9162 16.274 15.2002 16.274C15.4834 16.274 15.7334 16.166 15.9502 15.95C16.1662 15.7332 16.2742 15.4832 16.2742 15.2C16.2742 14.916 16.1662 14.666 15.9502 14.45L13.0498 11.5748V8.0744C13.0498 7.7912 12.9498 7.5496 12.7498 7.3496C12.5498 7.1496 12.2998 7.0496 11.9998 7.0496C11.7166 7.0496 11.4706 7.1536 11.2618 7.3616C11.0538 7.5704 10.9498 7.8164 10.9498 8.0996V11.9744C10.9498 12.108 10.975 12.2372 11.0254 12.362C11.075 12.4868 11.1498 12.5992 11.2498 12.6992L14.4742 15.974ZM11.9998 21.9992C10.6166 21.9992 9.31664 21.7368 8.09984 21.212C6.88304 20.6872 5.82464 19.9748 4.92464 19.0748C4.02464 18.1748 3.31224 17.1164 2.78744 15.8996C2.26264 14.6828 2.00024 13.3828 2.00024 11.9996C2.00024 10.6164 2.26264 9.3164 2.78744 8.0996C3.31224 6.8828 4.02464 5.8244 4.92464 4.9244C5.82464 4.0244 6.88304 3.312 8.09984 2.7872C9.31664 2.2624 10.6166 2 11.9998 2C13.383 2 14.683 2.2624 15.8998 2.7872C17.1166 3.312 18.175 4.0244 19.075 4.9244C19.975 5.8244 20.6874 6.8828 21.2122 8.0996C21.737 9.3164 21.9994 10.6164 21.9994 11.9996C21.9994 13.3828 21.737 14.6828 21.2122 15.8996C20.6874 17.1164 19.975 18.1748 19.075 19.0748C18.175 19.9748 17.1166 20.6872 15.8998 21.212C14.683 21.7368 13.383 21.9992 11.9998 21.9992Z" fill="white"/>
</g>
</svg>
