<svg width="24" height="24" viewBox="0 0 24 24" fill="none" xmlns="http://www.w3.org/2000/svg">
<mask id="mask0_82_2686" style="mask-type:alpha" maskUnits="userSpaceOnUse" x="0" y="0" width="24" height="24">
<rect width="24" height="24" fill="#D9D9D9"/>
</mask>
<g mask="url(#mask0_82_2686)">
<path d="M4.05 18.9996C3.7668 18.9996 3.5208 18.8956 3.312 18.6876C3.104 18.4788 3 18.2328 3 17.9496C3 17.6664 3.104 17.4208 3.312 17.2128C3.5208 17.004 3.7668 16.8996 4.05 16.8996H8.1504C8.4336 16.8996 8.6792 17.004 8.8872 17.2128C9.096 17.4208 9.2004 17.6664 9.2004 17.9496C9.2004 18.2328 9.096 18.4788 8.8872 18.6876C8.6792 18.8956 8.4336 18.9996 8.1504 18.9996H4.05ZM4.05 7.1004C3.7668 7.1004 3.5208 6.996 3.312 6.7872C3.104 6.5792 3 6.3336 3 6.0504C3 5.7672 3.104 5.5212 3.312 5.3124C3.5208 5.1044 3.7668 5.0004 4.05 5.0004H11.8752C12.1584 5.0004 12.404 5.1044 12.612 5.3124C12.8208 5.5212 12.9252 5.7672 12.9252 6.0504C12.9252 6.3336 12.8208 6.5792 12.612 6.7872C12.404 6.996 12.1584 7.1004 11.8752 7.1004H4.05ZM12.0996 21C11.8164 21 11.5708 20.896 11.3628 20.688C11.154 20.4792 11.0496 20.2332 11.0496 19.95V15.9744C11.0496 15.6912 11.154 15.4456 11.3628 15.2376C11.5708 15.0296 11.8164 14.9256 12.0996 14.9256C12.3836 14.9256 12.6296 15.0296 12.8376 15.2376C13.0456 15.4456 13.1496 15.6912 13.1496 15.9744V16.8996H19.95C20.2332 16.8996 20.4792 17.004 20.688 17.2128C20.896 17.4208 21 17.6664 21 17.9496C21 18.2328 20.896 18.4788 20.688 18.6876C20.4792 18.8956 20.2332 18.9996 19.95 18.9996H13.1496V19.95C13.1496 20.2332 13.0456 20.4792 12.8376 20.688C12.6296 20.896 12.3836 21 12.0996 21ZM8.1504 15.0504C7.8672 15.0504 7.6212 14.946 7.4124 14.7372C7.2044 14.5292 7.1004 14.2836 7.1004 14.0004V13.05H4.05C3.7668 13.05 3.5208 12.946 3.312 12.738C3.104 12.5292 3 12.2832 3 12C3 11.7168 3.104 11.4708 3.312 11.262C3.5208 11.054 3.7668 10.95 4.05 10.95H7.1004V10.0248C7.1004 9.7416 7.2044 9.496 7.4124 9.288C7.6212 9.0792 7.8672 8.9748 8.1504 8.9748C8.4336 8.9748 8.6792 9.0792 8.8872 9.288C9.096 9.496 9.2004 9.7416 9.2004 10.0248V14.0004C9.2004 14.2836 9.096 14.5292 8.8872 14.7372C8.6792 14.946 8.4336 15.0504 8.1504 15.0504ZM12.0996 13.05C11.8164 13.05 11.5708 12.946 11.3628 12.738C11.154 12.5292 11.0496 12.2832 11.0496 12C11.0496 11.7168 11.154 11.4708 11.3628 11.262C11.5708 11.054 11.8164 10.95 12.0996 10.95H19.95C20.2332 10.95 20.4792 11.054 20.688 11.262C20.896 11.4708 21 11.7168 21 12C21 12.2832 20.896 12.5292 20.688 12.738C20.4792 12.946 20.2332 13.05 19.95 13.05H12.0996ZM15.8496 9.0744C15.5664 9.0744 15.3208 8.9704 15.1128 8.7624C14.904 8.5544 14.7996 8.3088 14.7996 8.0256V4.05C14.7996 3.7668 14.904 3.5208 15.1128 3.312C15.3208 3.104 15.5664 3 15.8496 3C16.1328 3 16.3788 3.104 16.5876 3.312C16.7956 3.5208 16.8996 3.7668 16.8996 4.05V5.0004H19.95C20.2332 5.0004 20.4792 5.1044 20.688 5.3124C20.896 5.5212 21 5.7672 21 6.0504C21 6.3336 20.896 6.5792 20.688 6.7872C20.4792 6.996 20.2332 7.1004 19.95 7.1004H16.8996V8.0256C16.8996 8.3088 16.7956 8.5544 16.5876 8.7624C16.3788 8.9704 16.1328 9.0744 15.8496 9.0744Z" fill="white"/>
</g>
</svg>
