<svg width="32" height="32" viewBox="0 0 32 32" fill="none" xmlns="http://www.w3.org/2000/svg">
<mask id="mask0_82_3249" style="mask-type:alpha" maskUnits="userSpaceOnUse" x="0" y="0" width="32" height="32">
<rect width="32" height="32" fill="#D9D9D9"/>
</mask>
<g mask="url(#mask0_82_3249)">
<path d="M15.9999 16.0002C14.5333 16.0002 13.2777 15.4779 12.2333 14.4335C11.1888 13.3891 10.6666 12.1335 10.6666 10.6668C10.6666 9.20016 11.1888 7.94461 12.2333 6.90016C13.2777 5.85572 14.5333 5.3335 15.9999 5.3335C17.4666 5.3335 18.7221 5.85572 19.7666 6.90016C20.811 7.94461 21.3333 9.20016 21.3333 10.6668C21.3333 12.1335 20.811 13.3891 19.7666 14.4335C18.7221 15.4779 17.4666 16.0002 15.9999 16.0002ZM7.99992 26.6668C7.26659 26.6668 6.63903 26.4059 6.11725 25.8842C5.59459 25.3615 5.33325 24.7335 5.33325 24.0002V22.9335C5.33325 22.1779 5.52792 21.4833 5.91725 20.8495C6.3057 20.2166 6.82214 19.7335 7.46659 19.4002C8.84436 18.7113 10.2444 18.1944 11.6666 17.8495C13.0888 17.5055 14.5333 17.3335 15.9999 17.3335C17.4666 17.3335 18.911 17.5055 20.3333 17.8495C21.7555 18.1944 23.1555 18.7113 24.5333 19.4002C25.1777 19.7335 25.6941 20.2166 26.0826 20.8495C26.4719 21.4833 26.6666 22.1779 26.6666 22.9335V24.0002C26.6666 24.7335 26.4057 25.3615 25.8839 25.8842C25.3613 26.4059 24.7333 26.6668 23.9999 26.6668H7.99992Z" fill="white"/>
</g>
</svg>
